<svg width="676" height="464" viewBox="0 0 676 464" fill="none" xmlns="http://www.w3.org/2000/svg">
<path d="M531 0.5L676 87.5V284L434.5 464H241.5L531 230V0.5Z" fill="#1973DD"/>
<path d="M531 230L586.5 250L325.5 451H243L531 230Z" fill="#0B4FFF"/>
<path d="M531 1.5L586.5 89.5V250L531 230.5V1.5Z" fill="#0037FC"/>
<path d="M9.5 126.5L123.5 84V252L387.5 464H181L0 298L9.5 126.5Z" fill="#4FA0FF"/>
<path d="M123 251.5L346.5 432L432 464H180.699L123 251.5Z" fill="#132BFF"/>
<path d="M9.5 126.5L123 85L123.5 252L180.5 463.5L55 272.5L61 133.5L9.5 126.5Z" fill="#8EBBFF"/>
</svg>